<?xml version="1.0" encoding="UTF-8" standalone="no"?>
<!DOCTYPE svg PUBLIC "-//W3C//DTD SVG 1.1//EN" "http://www.w3.org/Graphics/SVG/1.1/DTD/svg11.dtd">
<svg xmlns="http://www.w3.org/2000/svg" viewBox="0 0 376.77 69.55" height="32" width="170"><defs><style>.cls-1{fill:#06b6d4;}.cls-2{fill:#06b6d4;}</style></defs><g id="Capa_2" data-name="Capa 2"><g id="Capa_1-2" data-name="Capa 1"><path class="cls-1" d="M9.79,70a8.89,8.89,0,0,1-2.52-6.69V48.67q0-6-4.32-6.41a.88.88,0,0,1-.86-.93V33.7A.84.84,0,0,1,3,32.76q4.32-.43,4.32-6.34V12A8.89,8.89,0,0,1,9.79,5.33a9.62,9.62,0,0,1,7-2.45h6.84a.85.85,0,0,1,.86.86v8.57a.81.81,0,0,1-.25.61.83.83,0,0,1-.61.26H22.54A2.87,2.87,0,0,0,20.2,14.4a4.7,4.7,0,0,0-1,3V28.15c0,4.66-1.41,7.7-4.24,9.15-.24.14-.24.28,0,.43q4.24,2.16,4.24,9.14v11a4.68,4.68,0,0,0,1,3,2.88,2.88,0,0,0,2.34,1.23h1.08a.82.82,0,0,1,.61.25.81.81,0,0,1,.25.61v8.57a.85.85,0,0,1-.86.86H16.78A9.62,9.62,0,0,1,9.79,70Z" transform="translate(-2.09 -2.88)"/><path class="cls-1" d="M41.44,11.05a.91.91,0,0,1,0,.76l-5.18,15a.91.91,0,0,1-.94.73H27.58c-.63,0-.89-.32-.8-.94l2.88-15c.05-.53.36-.79.94-.79H40.82A.71.71,0,0,1,41.44,11.05Z" transform="translate(-2.09 -2.88)"/><path class="cls-2" d="M60.48,60.41l-.94-6.27c0-.24-.14-.36-.43-.36H51.34c-.29,0-.44.12-.44.36L50,60.41c0,.53-.36.79-.94.79H38.88c-.62,0-.86-.31-.72-.94L48.6,11.59a.86.86,0,0,1,.94-.79H61.27a.86.86,0,0,1,.94.79L72.58,60.26l.07.29c0,.43-.27.65-.79.65H61.42C60.84,61.2,60.53,60.94,60.48,60.41Zm-7.7-15.84H57.6c.19,0,.29-.12.29-.36L55.3,27.79c0-.19-.12-.29-.22-.29s-.17.1-.22.29L52.49,44.21C52.49,44.45,52.58,44.57,52.78,44.57Z" transform="translate(-2.09 -2.88)"/><path class="cls-2" d="M76.43,61a.82.82,0,0,1-.25-.61V11.66A.85.85,0,0,1,77,10.8H87.26a.84.84,0,0,1,.62.25.86.86,0,0,1,.25.61v39a.32.32,0,0,0,.36.36h14.69a.85.85,0,0,1,.86.86v8.5a.85.85,0,0,1-.86.86H77A.82.82,0,0,1,76.43,61Z" transform="translate(-2.09 -2.88)"/><path class="cls-2" d="M135,20.77a.84.84,0,0,1-.62.25H120a.32.32,0,0,0-.36.36v9.08a.32.32,0,0,0,.36.36h7.92a.82.82,0,0,1,.61.25.83.83,0,0,1,.26.61v8.57a.83.83,0,0,1-.26.61.82.82,0,0,1-.61.25H120a.32.32,0,0,0-.36.36V60.34a.85.85,0,0,1-.86.86H108.5a.85.85,0,0,1-.86-.86V11.66a.85.85,0,0,1,.86-.86h25.92a.84.84,0,0,1,.62.25.86.86,0,0,1,.25.61v8.5A.86.86,0,0,1,135,20.77Z" transform="translate(-2.09 -2.88)"/><path class="cls-2" d="M141.55,57.89q-4-4.19-4-11V25.13q0-6.84,4-11t10.73-4.17A14.25,14.25,0,0,1,163,14.11q4,4.18,4,11V46.87q0,6.84-4,11a14.25,14.25,0,0,1-10.73,4.17Q145.57,62.06,141.55,57.89Zm12.78-7.27a5.48,5.48,0,0,0,.76-3V24.41a5.48,5.48,0,0,0-.76-3,2.4,2.4,0,0,0-4.1,0,5.4,5.4,0,0,0-.76,3V47.59a5.4,5.4,0,0,0,.76,3,2.4,2.4,0,0,0,4.1,0Z" transform="translate(-2.09 -2.88)"/><path class="cls-2" d="M192.2,11.05a.82.82,0,0,1,.61-.25h10.08a.84.84,0,0,1,.62.25.86.86,0,0,1,.25.61V60.34a.86.86,0,0,1-.25.61.84.84,0,0,1-.62.25H191.45a1,1,0,0,1-1-.72l-7.13-25.06a.35.35,0,0,0-.25-.25c-.12,0-.18.06-.18.25L183,60.34a.85.85,0,0,1-.86.86H172.08a.81.81,0,0,1-.61-.25.83.83,0,0,1-.26-.61V11.66a.83.83,0,0,1,.26-.61.81.81,0,0,1,.61-.25h11.3a1,1,0,0,1,1,.72l7.2,25.2c0,.14.13.22.25.22s.18-.1.18-.29l-.07-25A.82.82,0,0,1,192.2,11.05Z" transform="translate(-2.09 -2.88)"/><path class="cls-1" d="M212.33,57.74q-4.11-4-4.11-10.72V24.91q0-6.77,4.11-10.73t10.94-4q6.84,0,11,4t4.14,10.73v.65a.86.86,0,0,1-.25.61.84.84,0,0,1-.61.25l-10.23.43a.76.76,0,0,1-.86-.86V24.05a3.79,3.79,0,0,0-.87-2.63,2.91,2.91,0,0,0-2.3-1,2.83,2.83,0,0,0-2.23,1,3.79,3.79,0,0,0-.87,2.63V48a3.7,3.7,0,0,0,.87,2.56,2.83,2.83,0,0,0,2.23,1,2.91,2.91,0,0,0,2.3-1,3.7,3.7,0,0,0,.87-2.56V45.94a.84.84,0,0,1,.25-.62.86.86,0,0,1,.61-.25l10.23.43a.87.87,0,0,1,.86.87V47q0,6.69-4.14,10.72t-11,4Q216.43,61.78,212.33,57.74Z" transform="translate(-2.09 -2.88)"/><path class="cls-1" d="M245.8,57.89q-4-4.19-4-11V25.13q0-6.84,4-11a14.25,14.25,0,0,1,10.73-4.17q6.71,0,10.73,4.17t4,11V46.87q0,6.84-4,11t-10.73,4.17A14.25,14.25,0,0,1,245.8,57.89Zm12.78-7.27a5.4,5.4,0,0,0,.76-3V24.41a5.4,5.4,0,0,0-.76-3,2.4,2.4,0,0,0-4.1,0,5.48,5.48,0,0,0-.76,3V47.59a5.48,5.48,0,0,0,.76,3,2.4,2.4,0,0,0,4.1,0Z" transform="translate(-2.09 -2.88)"/><path class="cls-1" d="M275.72,61a.82.82,0,0,1-.25-.61V11.66a.85.85,0,0,1,.86-.86h13.75q6.92,0,11.09,3.89A13.41,13.41,0,0,1,305.35,25V47a13.41,13.41,0,0,1-4.18,10.29Q297,61.19,290.08,61.2H276.33A.82.82,0,0,1,275.72,61Zm12.06-10,2-.08a3.32,3.32,0,0,0,2.53-1.33,5.54,5.54,0,0,0,1.08-3.35V25.78a5.5,5.5,0,0,0-1-3.46,3.24,3.24,0,0,0-2.67-1.3h-1.94a.32.32,0,0,0-.36.36V50.62A.32.32,0,0,0,287.78,51Z" transform="translate(-2.09 -2.88)"/><path class="cls-1" d="M337.35,20.77a.82.82,0,0,1-.61.25H322.27a.32.32,0,0,0-.36.36v9.08a.32.32,0,0,0,.36.36h7.92a.85.85,0,0,1,.86.86v8.57a.85.85,0,0,1-.86.86h-7.92a.32.32,0,0,0-.36.36v9.15a.32.32,0,0,0,.36.36h14.47a.85.85,0,0,1,.86.86v8.5a.85.85,0,0,1-.86.86H310.82a.85.85,0,0,1-.86-.86V11.66a.85.85,0,0,1,.86-.86h25.92a.85.85,0,0,1,.86.86v8.5A.82.82,0,0,1,337.35,20.77Z" transform="translate(-2.09 -2.88)"/><path class="cls-1" d="M354,11.05a.87.87,0,0,1,0,.76l-5.18,15a.91.91,0,0,1-.94.73h-7.78c-.62,0-.89-.32-.79-.94l2.88-15c.05-.53.36-.79.94-.79h10.22A.69.69,0,0,1,354,11.05Z" transform="translate(-2.09 -2.88)"/><path class="cls-1" d="M357.33,72.43a.85.85,0,0,1-.86-.86V63a.81.81,0,0,1,.25-.61.82.82,0,0,1,.61-.25h1.15a2.91,2.91,0,0,0,2.34-1.23,4.67,4.67,0,0,0,1-3v-11q0-6.91,4.18-9.14c.19-.15.19-.29,0-.43q-4.17-2.23-4.18-9.15V17.42a4.69,4.69,0,0,0-1-3,2.89,2.89,0,0,0-2.34-1.22h-1.15a.83.83,0,0,1-.61-.26.81.81,0,0,1-.25-.61V3.74a.85.85,0,0,1,.86-.86h6.91a9.62,9.62,0,0,1,7,2.45A8.89,8.89,0,0,1,373.75,12v14.4c0,3.94,1.41,6,4.25,6.34a.84.84,0,0,1,.86.94v7.63a.88.88,0,0,1-.86.93c-2.84.29-4.25,2.43-4.25,6.41V63.29A8.89,8.89,0,0,1,371.23,70a9.62,9.62,0,0,1-7,2.45Z" transform="translate(-2.09 -2.88)"/></g></g></svg>